<?xml version="1.0" encoding="UTF-8" standalone="no"?>
<svg
   xmlns:dc="http://purl.org/dc/elements/1.1/"
   xmlns:cc="http://creativecommons.org/ns#"
   xmlns:rdf="http://www.w3.org/1999/02/22-rdf-syntax-ns#"
   xmlns:svg="http://www.w3.org/2000/svg"
   xmlns="http://www.w3.org/2000/svg"
   xmlns:sodipodi="http://sodipodi.sourceforge.net/DTD/sodipodi-0.dtd"
   xmlns:inkscape="http://www.inkscape.org/namespaces/inkscape"
   width="200mm"
   height="200mm"
   viewBox="0 0 199.99999 200"
   version="1.1"
   id="svg179"
   inkscape:version="1.0.1 (3bc2e813f5, 2020-09-07)"
   sodipodi:docname="person.svg">
  <defs
     id="defs173" />
  <sodipodi:namedview
     id="base"
     pagecolor="#ffffff"
     bordercolor="#666666"
     borderopacity="1.0"
     inkscape:pageopacity="0.0"
     inkscape:pageshadow="2"
     inkscape:zoom="0.3096752"
     inkscape:cx="247.08815"
     inkscape:cy="377.35673"
     inkscape:document-units="mm"
     inkscape:current-layer="layer1"
     inkscape:document-rotation="0"
     showgrid="false"
     fit-margin-top="0"
     fit-margin-left="0"
     fit-margin-right="0"
     fit-margin-bottom="0"
     inkscape:pagecheckerboard="false"
     inkscape:window-width="1360"
     inkscape:window-height="708"
     inkscape:window-x="0"
     inkscape:window-y="28"
     inkscape:window-maximized="1" />
  <metadata
     id="metadata176">
    <rdf:RDF>
      <cc:Work
         rdf:about="">
        <dc:format>image/svg+xml</dc:format>
        <dc:type
           rdf:resource="http://purl.org/dc/dcmitype/StillImage" />
        <dc:title></dc:title>
      </cc:Work>
    </rdf:RDF>
  </metadata>
  <g
     inkscape:label="Layer 1"
     inkscape:groupmode="layer"
     id="layer1"
     transform="translate(-40.457927,-48.324365)">
    <g
       id="g171"
       transform="matrix(0.26458333,0,0,0.26458333,-4.2021043,31.031691)">
      <ellipse
         cx="546.74658"
         cy="792.6745"
         rx="243"
         ry="14.25"
         fill="#f2f2f2"
         id="ellipse60" />
      <g
         id="g147">
        <rect
           x="554.87329"
           y="246.96227"
           width="54"
           height="133"
           transform="rotate(-30,429.71932,533.94615)"
           fill="#3f3d56"
           id="rect80" />
        <rect
           x="540.22186"
           y="281.32919"
           width="43.38195"
           height="0.99952"
           transform="rotate(-30.92535,412.48197,494.66963)"
           fill="#4d76fd"
           id="rect82" />
        <rect
           x="546.14276"
           y="289.59579"
           width="43.38195"
           height="0.99952"
           transform="rotate(-30.92535,418.40288,502.93623)"
           fill="#4d76fd"
           id="rect84" />
        <rect
           x="550.14276"
           y="296.59579"
           width="43.38195"
           height="0.99952"
           transform="rotate(-30.92535,422.40288,509.93624)"
           fill="#4d76fd"
           id="rect86" />
        <rect
           x="556.14276"
           y="305.59579"
           width="43.38195"
           height="0.99952"
           transform="rotate(-30.92535,428.40289,518.93624)"
           fill="#4d76fd"
           id="rect88" />
        <rect
           x="565.14264"
           y="318.59604"
           width="43.382198"
           height="0.99952"
           transform="rotate(-30.92535,437.40288,531.93649)"
           fill="#4d76fd"
           id="rect90" />
        <path
           d="m 741.62,388.30406 c 0,0 25.74126,-12.38061 44.05859,-7.76585 L 741.62,261.71352 V 249.512 l 62.36214,148.379 v 0 c 15.59183,29.38982 35.304,96.37434 1.69573,101.75169 -38.12968,6.10075 -106.76311,28.97856 -106.76311,28.97856 L 683.66288,395.93 Z"
           transform="translate(-130.62671,-46.53774)"
           fill="#2f2e41"
           id="path92" />
        <path
           d="m 591.38906,348.64919 c 0,0 -41.18006,-51.85636 -51.85637,-33.55412 -10.67631,18.30224 47.94731,49.08811 47.94731,49.08811 z"
           transform="translate(-130.62671,-46.53774)"
           fill="#ffb9b9"
           id="path94" />
        <path
           d="m 605.11574,350.17438 -16.77706,-9.15113 c 0,0 -10.67631,27.45337 -10.67631,32.02893 0,4.57556 16.77706,6.10075 16.77706,6.10075 z"
           transform="translate(-130.62671,-46.53774)"
           fill="#d0cde1"
           id="path96" />
        <circle
           cx="538.54688"
           cy="148.06754"
           r="39.654869"
           fill="#ffb9b9"
           id="circle98" />
        <path
           d="m 699.67735,190.02972 c 0,0 16.77706,50.33118 28.97855,53.38155 12.20149,3.05037 -47.2808,25.92819 -47.2808,25.92819 0,0 -18.30225,-42.70525 -27.45337,-53.38156 -9.15112,-10.67631 45.75562,-25.92818 45.75562,-25.92818 z"
           transform="translate(-130.62671,-46.53774)"
           fill="#ffb9b9"
           id="path100" />
        <path
           d="m 795.00155,484.39085 c 32.8753,-5.26 14.73,-69.47263 -0.671,-99.77977 a 20.195,20.195 0 0 1 3.72137,3.693 c 15.25187,19.82743 45.75562,105.23791 7.62594,111.33866 -38.12968,6.10075 -106.76311,28.97856 -106.76311,28.97856 l -2.075,-18.0524 c 19.61168,-6.29579 68.26239,-21.39415 98.1618,-26.17805 z"
           transform="translate(-130.62671,-46.53774)"
           opacity="0.1"
           id="path102" />
        <path
           d="m 847.6205,746.723 c 0,0 38.12968,30.50375 35.07931,33.55412 -3.05037,3.05037 -35.07931,51.85637 -62.53268,56.43193 -27.45337,4.57556 -39.65486,4.57556 -39.65486,0 0,-4.57556 7.62593,-15.25187 21.35262,-19.82744 13.72669,-4.57557 15.25187,-35.0793 13.72668,-41.18005 -1.52519,-6.10075 32.02893,-28.97856 32.02893,-28.97856 z"
           transform="translate(-130.62671,-46.53774)"
           fill="#2f2e41"
           id="path104" />
        <path
           d="m 733.23146,519.47015 24.403,114.389 c 0,0 100.66235,112.86385 97.612,114.389 -3.05035,1.52515 -33.55412,32.02893 -39.65487,32.02893 -6.10075,0 -111.33866,-118.9646 -111.33866,-118.9646 l -38.12968,-99.13717 z"
           transform="translate(-130.62671,-46.53774)"
           fill="#2f2e41"
           id="path106" />
        <path
           d="m 733.23146,519.47015 24.403,114.389 c 0,0 100.66235,112.86385 97.612,114.389 -3.05035,1.52515 -33.55412,32.02893 -39.65487,32.02893 -6.10075,0 -111.33866,-118.9646 -111.33866,-118.9646 l -38.12968,-99.13717 z"
           transform="translate(-130.62671,-46.53774)"
           opacity="0.1"
           id="path108" />
        <path
           d="m 757.63446,482.86566 c 0,0 -12.20146,51.85634 -45.75562,86.93567 -33.55416,35.07933 -48.806,106.7631 -48.806,106.7631 L 629.51874,819.932 c 0,0 -59.4823,-7.62594 -56.43193,-22.87781 l 32.02893,-126.59054 c 0,0 36.60449,-175.39652 56.43193,-187.598 19.82744,-12.20148 96.08679,10e-6 96.08679,10e-6 z"
           transform="translate(-130.62671,-46.53774)"
           fill="#2f2e41"
           id="path110" />
        <path
           d="m 626.46836,807.73053 c 0,0 9.15112,28.97856 3.05038,32.02893 -6.10074,3.05037 -114.38904,9.15113 -120.48974,-12.20146 0,0 -3.05038,-10.67631 21.35262,-10.67631 24.403,0 50.33118,-22.8778 50.33118,-22.8778 z"
           transform="translate(-130.62671,-46.53774)"
           fill="#2f2e41"
           id="path112" />
        <path
           d="m 672.224,263.23871 c 0,0 39.65486,-39.65487 50.33117,-36.6045 10.67631,3.05037 10.67631,18.30225 10.67631,18.30225 0,0 33.55412,4.57556 30.50375,114.389 -3.05037,109.81344 27.45337,122.015 16.77706,128.11572 -10.67631,6.10072 -132.69129,33.55416 -137.26687,6.10082 -4.57558,-27.45334 -3.05037,-132.69128 9.15112,-166.2454 12.20149,-33.55412 27.45337,-54.90677 19.82746,-64.05789 z"
           transform="translate(-130.62671,-46.53774)"
           fill="#575a89"
           id="path114" />
        <path
           d="m 722.55515,272.38983 c 0,0 45.75562,21.35262 19.82744,62.53267 -25.92818,41.18005 -45.75559,85.4105 -73.20899,83.8853 -27.4534,-1.5252 -70.15861,-27.45337 -82.36011,-27.45337 -12.2015,0 4.57557,-44.23043 13.72669,-45.75562 9.15112,-1.52519 51.85636,24.403 51.85636,24.403 0,0 15.25188,-103.71273 70.15861,-97.61198 z"
           transform="translate(-130.62671,-46.53774)"
           fill="#575a89"
           id="path116" />
        <path
           d="m 692.0502,198.9873 c -3.38281,-0.20184 -6.68589,0.94138 -10.04523,1.38738 -12.01878,1.59566 -24.522,-7.12574 -27.17572,-18.956 a 14.54469,14.54469 0 0 0 -1.38995,-4.52877 c -1.84974,-3.02 -6.06244,-3.59583 -9.53519,-2.90138 -3.47275,0.69445 -6.7646,2.31978 -10.30124,2.50534 -5.46064,0.28652 -10.70312,-3.07527 -13.61328,-7.7047 -2.91016,-4.62943 -3.73416,-10.32591 -3.3413,-15.77993 l 2.6178,2.74749 a 13.29656,13.29656 0 0 0 1.18532,-7.22646 8.38565,8.38565 0 0 1 7.943,2.03245 c 2.30828,0.24565 0.56616,-4.28146 2.28105,-5.846 0.71808,-0.65512 1.819,-0.53152 2.791,-0.52215 4.91058,0.0473 8.883,-3.70861 12.75264,-6.73218 a 54.19076,54.19076 0 0 1 22.88765,-10.44 c 5.545,-1.08153 11.4414,-1.25533 16.70007,0.80949 4.31867,1.69572 7.93346,4.78419 11.27782,8 8.23294,7.91654 15.52333,17.21819 18.94841,28.11414 a 47.32786,47.32786 0 0 1 0.22667,27.44358 c -1.38012,4.65808 -5.53945,20.61076 -11.62861,20.98227 -7.65117,0.46694 -3.05747,-12.81633 -12.58091,-13.38457 z"
           transform="translate(-130.62671,-46.53774)"
           fill="#2f2e41"
           id="path118" />
      </g>
    </g>
  </g>
</svg>
