<?xml version="1.0" encoding="UTF-8" standalone="no"?>
<svg
   xmlns:dc="http://purl.org/dc/elements/1.1/"
   xmlns:cc="http://creativecommons.org/ns#"
   xmlns:rdf="http://www.w3.org/1999/02/22-rdf-syntax-ns#"
   xmlns:svg="http://www.w3.org/2000/svg"
   xmlns="http://www.w3.org/2000/svg"
   xmlns:sodipodi="http://sodipodi.sourceforge.net/DTD/sodipodi-0.dtd"
   xmlns:inkscape="http://www.inkscape.org/namespaces/inkscape"
   id="a07b0c17-3700-4c07-9cd3-d5e614437a2a"
   data-name="Layer 1"
   width="938.74658"
   height="806.92451"
   viewBox="0 0 938.74658 806.92451"
   version="1.1"
   sodipodi:docname="personbehind.svg"
   inkscape:version="1.0.1 (3bc2e813f5, 2020-09-07)">
  <metadata
     id="metadata125">
    <rdf:RDF>
      <cc:Work
         rdf:about="">
        <dc:format>image/svg+xml</dc:format>
        <dc:type
           rdf:resource="http://purl.org/dc/dcmitype/StillImage" />
        <dc:title>absorbed in</dc:title>
      </cc:Work>
    </rdf:RDF>
  </metadata>
  <defs
     id="defs123" />
  <sodipodi:namedview
     pagecolor="#ffffff"
     bordercolor="#666666"
     borderopacity="1"
     objecttolerance="10"
     gridtolerance="10"
     guidetolerance="10"
     inkscape:pageopacity="0"
     inkscape:pageshadow="2"
     inkscape:window-width="1360"
     inkscape:window-height="708"
     id="namedview121"
     showgrid="false"
     inkscape:zoom="0.56769524"
     inkscape:cx="469.37329"
     inkscape:cy="403.46225"
     inkscape:window-x="0"
     inkscape:window-y="28"
     inkscape:window-maximized="1"
     inkscape:current-layer="a07b0c17-3700-4c07-9cd3-d5e614437a2a"
     inkscape:document-rotation="0" />
  <title
     id="title2">absorbed in</title>
  <ellipse
     cx="854.24829"
     cy="503.79488"
     rx="56.41661"
     ry="5.20036"
     fill="#f2f2f2"
     id="ellipse16" />
  <path
     d="M1008.87329,529.4333c0,14.58087-8.6676,19.672-19.36056,19.672q-.37157,0-.742-.00825c-.49543-.01062-.98615-.03421-1.471-.06724-9.65019-.683-17.14765-6.03595-17.14765-19.59648,0-14.03354,17.93326-31.74149,19.28034-33.052l.00236-.00235c.05191-.05072.07786-.0755.07786-.0755S1008.87329,514.85243,1008.87329,529.4333Z"
     transform="translate(-130.62671 -46.53774)"
     fill="#4d76fd"
     id="path20" />
  <path
     d="M988.80734,546.87467l7.08105-9.89437-7.09875,10.98077-.01886,1.136c-.49543-.01062-.98615-.03421-1.471-.06724l.76321-14.58795-.00591-.11324.013-.02123.072-1.37776-7.11645-11.0079,7.13886,9.97458.01653.29254.5768-11.02206L982.66524,509.792l6.16687,9.44024.6004-22.851.00236-.07785v.0755l-.10026,18.01937,6.06544-7.14358-6.0902,8.69591-.16043,9.86842,5.6632-9.4709-5.68678,10.923-.08965,5.48625,8.22171-13.18188-8.25238,15.09635Z"
     transform="translate(-130.62671 -46.53774)"
     fill="#3f3d56"
     id="path22" />
  <ellipse
     cx="105.24829"
     cy="683.9269"
     rx="105.24829"
     ry="9.70156"
     fill="#f2f2f2"
     id="ellipse24" />
  <path
     d="M280.64513,691.47581c0,27.20142-16.16989,36.69915-36.11819,36.69915q-.69318,0-1.38415-.01541c-.92426-.01981-1.83971-.06381-2.74415-.12544-18.003-1.27413-31.98988-11.26038-31.98988-36.5583,0-26.18034,33.45548-59.2155,35.96853-61.66036l.00441-.00439c.09684-.09463.14524-.14084.14524-.14084S280.64513,664.2744,280.64513,691.47581Z"
     transform="translate(-130.62671 -46.53774)"
     fill="#4d76fd"
     id="path26" />
  <path
     d="M243.211,724.01364l13.21008-18.45848L243.178,726.04039l-.03519,2.11916c-.92426-.01981-1.83971-.06381-2.74415-.12544l1.4238-27.21461-.011-.21126.0242-.03961.13423-2.57028L228.69372,677.4625l13.31794,18.60813.03084.54574,1.07606-20.56224-11.366-21.22024,11.50463,17.61128,1.12009-42.62972.00441-.14523v.14084l-.187,33.61612,11.31541-13.32674-11.36161,16.2227-.29928,18.41008,10.565-17.66848-10.609,20.37741-.16725,10.23491L258.976,673.08553l-15.39527,28.16308Z"
     transform="translate(-130.62671 -46.53774)"
     fill="#3f3d56"
     id="path28" />
  <path
     d="M557.98668,798.31313,506.71959,844.3096c-22.987-10.07991-38.24936-27.23282-45.99647-51.26709L511.99021,747.046C512.31325,777.26912,527.96313,794.08009,557.98668,798.31313Z"
     transform="translate(-130.62671 -46.53774)"
     fill="#e6e6e6"
     id="path62" />
  <rect
     x="466.56383"
     y="782.42699"
     width="45.54119"
     height="0.99944"
     transform="translate(-521.85128 458.83126) rotate(-40.49916)"
     fill="#3f3d56"
     id="rect64" />
  <rect
     x="470.97451"
     y="788.87618"
     width="44.94441"
     height="0.99898"
     transform="translate(-532.34089 487.31772) rotate(-42.05889)"
     fill="#3f3d56"
     id="rect66" />
  <path
     d="M583.22592,631.301l-68.49423,7.2478c-12.72573-21.63472-15.04771-44.477-7.24781-68.49423l68.49423-7.2478C558.536,587.491,561.37227,610.28318,583.22592,631.301Z"
     transform="translate(-130.62671 -46.53774)"
     fill="#f2f2f2"
     id="path68" />
  <rect
     x="513.82756"
     y="578.11615"
     width="45.54119"
     height="0.99944"
     transform="translate(-175.68704 -1.2204) rotate(-4.64128)"
     fill="#3f3d56"
     id="rect70" />
  <rect
     x="513.6812"
     y="585.75197"
     width="44.94441"
     height="0.99898"
     transform="translate(-190.81475 14.80599) rotate(-6.20101)"
     fill="#3f3d56"
     id="rect72" />
  <path
     d="M520.58543,486.12415l-45.789-51.4525c10.1727-22.94606,27.38713-38.139,51.45251-45.789l45.789,51.45251C541.8138,440.53612,524.93973,456.118,520.58543,486.12415Z"
     transform="translate(-130.62671 -46.53774)"
     fill="#e6e6e6"
     id="path74" />
  <rect
     x="535.74937"
     y="394.76403"
     width="0.99944"
     height="45.54119"
     transform="translate(-273.43086 399.01378) rotate(-40.26768)"
     fill="#3f3d56"
     id="rect76" />
  <rect
     x="529.28408"
     y="399.14862"
     width="0.99898"
     height="44.94441"
     transform="translate(-276.78941 414.2161) rotate(-41.8274)"
     fill="#3f3d56"
     id="rect78" />
</svg>
