<?xml version="1.0" encoding="UTF-8" standalone="no"?>
<svg
   xmlns:dc="http://purl.org/dc/elements/1.1/"
   xmlns:cc="http://creativecommons.org/ns#"
   xmlns:rdf="http://www.w3.org/1999/02/22-rdf-syntax-ns#"
   xmlns:svg="http://www.w3.org/2000/svg"
   xmlns="http://www.w3.org/2000/svg"
   xmlns:xlink="http://www.w3.org/1999/xlink"
   xmlns:sodipodi="http://sodipodi.sourceforge.net/DTD/sodipodi-0.dtd"
   xmlns:inkscape="http://www.inkscape.org/namespaces/inkscape"
   id="e1d6a9e2-5d0a-4358-9625-bb79dd06fec3"
   data-name="Layer 1"
   width="703.7113"
   height="587.29346"
   viewBox="0 0 703.7113 587.29344"
   version="1.1"
   sodipodi:docname="timeline2-img.svg"
   inkscape:version="1.0.1 (3bc2e813f5, 2020-09-07)">
  <metadata
     id="metadata69">
    <rdf:RDF>
      <cc:Work
         rdf:about="">
        <dc:format>image/svg+xml</dc:format>
        <dc:type
           rdf:resource="http://purl.org/dc/dcmitype/StillImage" />
        <dc:title>solution_mindset</dc:title>
      </cc:Work>
    </rdf:RDF>
  </metadata>
  <defs
     id="defs67">
    <linearGradient
       inkscape:collect="always"
       id="linearGradient914">
      <stop
         style="stop-color:#f2c94c;stop-opacity:1"
         offset="0"
         id="stop910" />
      <stop
         style="stop-color:#f2994a;stop-opacity:1"
         offset="1"
         id="stop912" />
    </linearGradient>
    <linearGradient
       inkscape:collect="always"
       xlink:href="#linearGradient914"
       id="linearGradient924"
       x1="154.049"
       y1="293.53448"
       x2="459.90799"
       y2="293.53448"
       gradientUnits="userSpaceOnUse" />
  </defs>
  <sodipodi:namedview
     pagecolor="#ffffff"
     bordercolor="#666666"
     borderopacity="1"
     objecttolerance="10"
     gridtolerance="10"
     guidetolerance="10"
     inkscape:pageopacity="0"
     inkscape:pageshadow="2"
     inkscape:window-width="1360"
     inkscape:window-height="708"
     id="namedview65"
     showgrid="false"
     inkscape:zoom="0.64085842"
     inkscape:cx="484.55763"
     inkscape:cy="297.20805"
     inkscape:window-x="0"
     inkscape:window-y="28"
     inkscape:window-maximized="1"
     inkscape:current-layer="e1d6a9e2-5d0a-4358-9625-bb79dd06fec3"
     inkscape:document-rotation="0"
     fit-margin-top="0"
     fit-margin-left="0"
     fit-margin-right="0"
     fit-margin-bottom="0" />
  <title
     id="title2">solution_mindset</title>
  <path
     d="m 293.53627,587.07058 a 293.53529,293.53529 0 1 1 207.55981,-85.97449 291.6131,291.6131 0 0 1 -207.55981,85.97449 z m 0,-584.82844 c -160.61958,0 -291.2935918,130.67347 -291.2935918,291.29359 0,160.62012 130.6740018,291.29413 291.2935918,291.29413 160.61959,0 291.29359,-130.67401 291.29359,-291.29416 0,-160.62015 -130.67402,-291.29356 -291.29359,-291.29356 z"
     fill="#2f2e41"
     id="path6" />
  <polygon
     points="154.049,386.443 162.271,222.003 305.334,120.05 306.913,121.037 454.975,213.781 459.908,386.443 459.875,386.46 315.201,467.019 156.779,387.808 "
     fill="#f2c94c"
     id="polygon8"
     style="fill:url(#linearGradient924);fill-opacity:1"
     transform="translate(-13.442362,0.00142)" />
  <polygon
     points="459.875,386.46 315.201,467.019 156.779,387.808 297.112,289.424 "
     opacity="0.3"
     id="polygon10"
     transform="translate(-13.442362,0.00142)" />
  <polygon
     points="459.908,386.443 297.112,289.424 306.913,121.037 454.975,213.781 "
     opacity="0.1"
     id="polygon12"
     transform="translate(-13.442362,0.00142)" />
  <polygon
     points="456.094,266.49 304.066,171.173 160.165,272.745 159.361,271.607 304.021,169.5 456.834,265.309 "
     fill="#f2f2f2"
     id="polygon14"
     transform="translate(-13.442362,0.00142)" />
  <polygon
     points="456.963,318.417 456.275,319.629 300.571,231.382 157.361,328.61 156.579,327.458 300.505,229.743 300.882,229.957 "
     fill="#f2f2f2"
     id="polygon16"
     transform="translate(-13.442362,0.00142)" />
  <polygon
     points="357.988,152.594 357.988,325.676 212.276,415.965 211.542,414.781 356.595,324.9 356.595,152.594 "
     fill="#f2f2f2"
     id="polygon18"
     transform="translate(-13.442362,0.00142)" />
  <polygon
     points="409.531,184.879 409.531,356.416 269.209,444.428 268.469,443.248 408.138,355.645 408.138,184.879 "
     fill="#f2f2f2"
     id="polygon20"
     transform="translate(-13.442362,0.00142)" />
  <polygon
     points="255.141,156.352 246.612,324.933 408.289,414.764 407.612,415.982 245.176,325.73 245.199,325.296 253.75,156.281 "
     fill="#f2f2f2"
     id="polygon22"
     transform="translate(-13.442362,0.00142)" />
  <polygon
     points="206.779,190.82 197.337,359.471 357.154,443.221 356.507,444.455 195.895,360.288 195.92,359.841 205.388,190.742 "
     fill="#f2f2f2"
     id="polygon24"
     transform="translate(-13.442362,0.00142)" />
  <circle
     cx="473.91422"
     cy="63.862209"
     r="56.018002"
     fill="#3f3d56"
     id="circle26" />
  <circle
     cx="114.12047"
     cy="506.86047"
     r="80.113106"
     fill="#f2f2f2"
     id="circle4"
     style="fill:#ffffff;fill-opacity:1;stroke-width:0.576666" />
  <g
     id="g59"
     transform="translate(-208.26172,-86.711078)">
    <path
       d="m 986.13709,473.81218 12.80452,35.07325 c 0,0 -13.36124,40.08372 0,41.19716 13.36119,1.11344 15.03139,-38.41359 15.03139,-38.41359 l -7.2373,-42.31059 z"
       transform="translate(-102,-112.99772)"
       fill="#ffb9b9"
       id="path30" />
    <path
       d="m 992.261,359.12821 9.4642,9.46422 v 45.09418 c 0,0 5.5672,8.35077 4.4538,10.57764 -1.1135,2.22687 -2.2269,2.22688 -1.1135,3.897 1.1135,1.67012 2.2269,2.78359 1.1135,3.897 a 4.17537,4.17537 0 0 0 0,5.01046 c 1.1134,1.11344 3.3403,2.7836 1.6701,4.45375 -1.6702,1.67015 -3.897,0.55672 -1.6701,6.68062 2.2268,6.1239 6.1239,7.79406 5.0104,10.02093 -1.1134,2.22687 -1.1134,7.79406 -1.1134,7.79406 l -23.9389,3.34031 -5.01047,-62.90917 z"
       transform="translate(-102,-112.99772)"
       fill="#d0cde1"
       id="path32" />
    <polygon
       points="906.963,360.814 909.189,352.464 881.353,353.577 882.467,365.268 "
       fill="#3f3d56"
       id="polygon34" />
    <polygon
       points="863.26,226.367 865.765,207.16 868.271,187.953 832.641,187.953 829.3,221.357 "
       fill="#ffb9b9"
       id="polygon36" />
    <polygon
       points="863.26,226.367 865.765,207.16 868.271,187.953 832.641,187.953 829.3,221.357 "
       opacity="0.1"
       id="polygon38" />
    <path
       d="m 860.87547,459.89422 18.92843,40.64044 c 0,0 3.34031,18.92842 8.35077,19.48514 5.01046,0.55672 10.02093,-19.48514 10.02093,-19.48514 L 891.495,489.957 883.70094,459.89421 Z"
       transform="translate(-102,-112.99772)"
       fill="#ffb9b9"
       id="path40" />
    <path
       d="m 900.40247,496.63763 -15.58811,24.49561 c 0,0 -15.03136,233.26496 -12.80452,231.59476 2.22684,-1.6702 9.46421,-2.22687 12.2478,-6.68062 2.78359,-4.45375 20.04186,0 20.04186,0 l 10.02093,-10.57764 V 727.119 c 0,-1.67015 20.04186,-129.15864 20.04186,-129.15864 V 630.25 c 0,0 -6.1239,118.581 3.897,117.46756 10.0209,-1.11344 30.6195,-7.79406 30.6195,-7.79406 0,0 29.50607,-221.57388 20.59858,-229.92465 -8.90749,-8.35077 -12.80452,-27.2792 -12.80452,-27.2792 z"
       transform="translate(-102,-112.99772)"
       fill="#2f2e41"
       id="path42" />
    <circle
       cx="851.29071"
       cy="172.08696"
       r="26.722481"
       fill="#ffb9b9"
       id="circle44" />
    <path
       d="m 893.72185,339.64307 -3.897,-2.22687 c 0,0 -17.25827,11.69109 -22.82545,37.85684 -5.56718,26.16575 -9.46422,32.84638 -9.46422,32.84638 0,0 -5.56718,1.11344 -1.67015,5.01047 3.89703,3.89703 3.897,3.34031 0.55672,5.56718 -3.34028,2.22687 -5.56718,-2.22687 -3.34031,2.22687 2.22687,4.45374 5.01046,3.34031 2.78359,6.12391 -2.22687,2.7836 -6.1239,2.78359 -3.897,5.01046 2.2269,2.22687 -2.22687,7.23734 0.55672,9.46421 2.78359,2.22687 3.897,2.78359 3.897,6.68062 a 19.71444,19.71444 0 0 0 1.11343,6.68062 h 28.94936 c 0,0 -5.56719,-10.57765 -3.897,-12.80452 1.67019,-2.22687 2.22687,-4.45375 1.11343,-5.56718 -1.11344,-1.11343 -4.45374,1.11343 -1.11343,-1.67016 3.34031,-2.78359 4.45374,-1.11343 3.34031,-4.45374 -1.11343,-3.34031 -3.34031,-1.67016 -1.11344,-3.34031 2.22687,-1.67015 3.897,-1.11344 2.78359,-2.7836 -1.11341,-1.67016 -3.34031,-1.67015 -1.11343,-2.78359 2.22688,-1.11344 3.897,0 3.34031,-2.78359 -0.55669,-2.78359 -1.11344,-1.67015 0,-2.78359 1.11344,-1.11344 12.80452,-38.97028 12.80452,-40.08372 0,-1.11344 -8.90755,-36.18669 -8.90755,-36.18669 z"
       transform="translate(-102,-112.99772)"
       fill="#d0cde1"
       id="path46" />
    <polygon
       points="784.485,350.794 786.155,339.659 751.081,341.886 759.989,350.237 "
       fill="#3f3d56"
       id="polygon48" />
    <path
       d="m 898.1756,494.41076 -7.23734,13.36124 c 0,0 21.712,2.78359 29.50607,5.56718 7.79407,2.78359 27.83592,6.68062 27.83592,6.68062 l 5.01046,-19.48514 z"
       transform="translate(-102,-112.99772)"
       fill="#3f3d56"
       id="path50" />
    <polygon
       points="887.477,383.64 859.641,387.537 865.765,405.909 890.261,400.898 "
       fill="#3f3d56"
       id="polygon52" />
    <path
       d="m 971.66241,320.71465 c 0,0 -1.67015,-1.11343 -5.56718,1.11344 -3.89703,2.22687 -16.70155,3.34031 -22.82545,-3.34031 -6.1239,-6.68062 -10.57765,-12.24778 -12.24778,-11.13437 -1.67013,1.11341 -2.78359,13.918 -2.78359,13.918 l -5.56719,4.45375 -32.84639,11.69104 2.78359,75.157 5.01046,17.25827 c 0,0 -3.897,13.36124 1.11344,21.15529 5.01044,7.79405 -2.78359,10.57765 -2.78359,10.57765 0,0 -1.67016,2.22687 -0.55672,7.79406 1.11344,5.56719 -1.11344,26.16576 -1.11344,26.16576 0,0 47.32106,21.15529 96.869,2.78359 l -5.56718,-21.1553 -2.78359,-47.32105 c 0,0 2.78359,-7.79406 2.22687,-11.13437 -0.55672,-3.34031 16.70153,-50.10464 16.70153,-50.10464 0,0 -2.78357,-23.38217 -17.25825,-28.39264 -14.47468,-5.01047 -16.70154,-10.02093 -16.70154,-10.02093 0,0 6.68059,-7.23736 3.897,-9.46424 z"
       transform="translate(-102,-112.99772)"
       fill="#d0cde1"
       id="path54" />
    <path
       d="m 926.38294,288.50786 c 0,0 -2.775,-4.16248 -1.70769,-8.64516 a 26.20163,26.20163 0 0 0 0.74711,-7.79131 77.11619,77.11619 0 0 1 4.48264,-11.31339 c 2.24134,-4.05576 1.174,-5.76344 8.21824,-7.04421 7.04424,-1.28077 4.16248,-10.45957 22.73356,-0.53365 a 5.44631,5.44631 0 0 0 5.65671,2.13461 c 3.8423,-0.74711 5.22979,4.58941 5.22979,4.58941 0,0 2.56153,-1.49423 3.5221,0.64038 0.96057,2.13461 7.8097,-1.28115 7.8097,13.12745 0,14.4086 -7.79406,27.27919 -7.79406,27.27919 0,0 0.57138,-24.237 -12.12953,-26.69179 -12.70091,-2.45479 -26.3624,-9.60573 -29.67105,-0.42692 a 69.97228,69.97228 0 0 1 -7.09752,14.67539 z"
       transform="translate(-102,-112.99772)"
       fill="#2f2e41"
       id="path56" />
    <ellipse
       cx="873.55945"
       cy="177.9325"
       rx="2.5052299"
       ry="3.3403101"
       fill="#ffb9b9"
       id="ellipse58" />
    <path
       d="m 961.36332,737.95091 3.9153,11.74592 c 0,0 0,11.74592 3.91531,17.61888 3.91531,5.87296 7.83061,18.5977 -7.83061,19.57652 -15.66122,0.97882 -22.513,-4.89413 -22.513,-4.89413 0,0 2.93648,-7.83061 0,-10.76709 -2.93648,-2.93648 0,-8.80944 0,-8.80944 l 2.93648,-23.49183 z"
       transform="translate(-102,-112.99772)"
       fill="#2f2e41"
       id="path60" />
    <path
       d="m 885.0933,737.95091 -3.9153,11.74592 c 0,0 0,11.74592 -3.9153,17.61888 -3.9153,5.87296 -7.83061,18.5977 7.83061,19.57652 15.66122,0.97882 22.513,-4.89413 22.513,-4.89413 0,0 -2.93648,-7.83061 0,-10.76709 2.93648,-2.93648 0,-8.80944 0,-8.80944 l -2.93648,-23.49183 z"
       transform="translate(-102,-112.99772)"
       fill="#2f2e41"
       id="path62" />
  </g>
</svg>
