<?xml version="1.0" encoding="UTF-8" standalone="no"?>
<svg
   xmlns:dc="http://purl.org/dc/elements/1.1/"
   xmlns:cc="http://creativecommons.org/ns#"
   xmlns:rdf="http://www.w3.org/1999/02/22-rdf-syntax-ns#"
   xmlns:svg="http://www.w3.org/2000/svg"
   xmlns="http://www.w3.org/2000/svg"
   version="1.1"
   id="Capa_1"
   x="0px"
   y="0px"
   width="279.64853"
   height="275.4353"
   viewBox="0 0 279.64853 275.43531"
   xml:space="preserve"><metadata
   id="metadata59"><rdf:RDF><cc:Work
       rdf:about=""><dc:format>image/svg+xml</dc:format><dc:type
         rdf:resource="http://purl.org/dc/dcmitype/StillImage" /><dc:title></dc:title></cc:Work></rdf:RDF></metadata><defs
   id="defs57">
	
<filter
   style="color-interpolation-filters:sRGB"
   id="filter1908"><feMorphology
     result="result1"
     in="SourceAlpha"
     operator="dilate"
     radius="3.6"
     id="feMorphology1896" /><feGaussianBlur
     stdDeviation="3.6"
     in="result1"
     result="result0"
     id="feGaussianBlur1898" /><feDiffuseLighting
     surfaceScale="-5"
     id="feDiffuseLighting1902"><feDistantLight
       elevation="45"
       azimuth="225"
       id="feDistantLight1900" /></feDiffuseLighting><feComposite
     in2="result0"
     operator="in"
     result="result91"
     id="feComposite1904" /><feComposite
     in="SourceGraphic"
     in2="result91"
     id="feComposite1906" /></filter><filter
   style="color-interpolation-filters:sRGB;"
   id="filter51"><feMorphology
     result="result1"
     in="SourceAlpha"
     operator="dilate"
     radius="3.6"
     id="feMorphology39" /><feGaussianBlur
     stdDeviation="3.6"
     in="result1"
     result="result0"
     id="feGaussianBlur41" /><feDiffuseLighting
     surfaceScale="-5"
     id="feDiffuseLighting45"><feDistantLight
       elevation="45"
       azimuth="225"
       id="feDistantLight43" /></feDiffuseLighting><feComposite
     in2="result0"
     operator="in"
     result="result91"
     id="feComposite47" /><feComposite
     in="SourceGraphic"
     in2="result91"
     id="feComposite49" /></filter></defs>
















<rect
   style="fill:#ffffff;stroke:#000000;stroke-width:3.13263;stroke-linecap:round;filter:url(#filter51)"
   id="rect29"
   width="228.86803"
   height="228.86803"
   x="25.390251"
   y="23.283638"
   ry="32.020809" /><g
   id="g20"
   transform="matrix(0.67822006,0,0,0.69058048,46.173265,42.360227)"
   style="display:inline">
		<path
   d="M 33.144,2.471 C 15.336,2.471 0.85,16.958 0.85,34.765 c 0,17.807 14.48,32.293 32.294,32.293 17.814,0 32.294,-14.486 32.294,-32.293 0,-17.807 -14.487,-32.294 -32.294,-32.294 z"
   id="path2" />
		<path
   d="m 137.663,2.471 c -17.807,0 -32.294,14.487 -32.294,32.294 0,17.807 14.487,32.293 32.294,32.293 17.808,0 32.297,-14.486 32.297,-32.293 0,-17.807 -14.483,-32.294 -32.297,-32.294 z"
   id="path4" />
		<path
   d="m 243.873,67.059 c 17.804,0 32.294,-14.486 32.294,-32.293 0,-17.807 -14.478,-32.295 -32.294,-32.295 -17.816,0 -32.294,14.487 -32.294,32.294 0,17.807 14.489,32.294 32.294,32.294 z"
   id="path6" />
		<path
   d="m 32.3,170.539 c 17.807,0 32.297,-14.483 32.297,-32.293 0,-17.811 -14.49,-32.297 -32.297,-32.297 -17.807,0 -32.3,14.487 -32.3,32.297 0,17.81 14.493,32.293 32.3,32.293 z"
   id="path8"
   style="fill:#4d4d4d" />
		<path
   d="m 136.819,170.539 c 17.804,0 32.294,-14.483 32.294,-32.293 0,-17.811 -14.478,-32.297 -32.294,-32.297 -17.813,0 -32.294,14.486 -32.294,32.297 0,17.81 14.487,32.293 32.294,32.293 z"
   id="path10"
   style="fill:#4d4d4d" />
		<path
   d="m 243.038,170.539 c 17.811,0 32.294,-14.483 32.294,-32.293 0,-17.811 -14.483,-32.297 -32.294,-32.297 -17.811,0 -32.306,14.486 -32.306,32.297 0,17.81 14.49,32.293 32.306,32.293 z"
   id="path12"
   style="fill:#4d4d4d" />
		<path
   d="m 33.039,209.108 c -17.807,0 -32.3,14.483 -32.3,32.294 0,17.804 14.493,32.293 32.3,32.293 17.807,0 32.293,-14.482 32.293,-32.293 0,-17.811 -14.486,-32.294 -32.293,-32.294 z"
   id="path14" />
		<path
   d="m 137.564,209.108 c -17.808,0 -32.3,14.483 -32.3,32.294 0,17.804 14.487,32.293 32.3,32.293 17.804,0 32.293,-14.482 32.293,-32.293 0,-17.811 -14.489,-32.294 -32.293,-32.294 z"
   id="path16" />
		<path
   d="m 243.771,209.108 c -17.804,0 -32.294,14.483 -32.294,32.294 0,17.804 14.49,32.293 32.294,32.293 17.811,0 32.294,-14.482 32.294,-32.293 0,-17.811 -14.49,-32.294 -32.294,-32.294 z"
   id="path18" />
	</g></svg>
