<?xml version="1.0" encoding="UTF-8" standalone="no"?>
<svg
   xmlns:dc="http://purl.org/dc/elements/1.1/"
   xmlns:cc="http://creativecommons.org/ns#"
   xmlns:rdf="http://www.w3.org/1999/02/22-rdf-syntax-ns#"
   xmlns:svg="http://www.w3.org/2000/svg"
   xmlns="http://www.w3.org/2000/svg"
   version="1.1"
   id="Capa_1"
   x="0px"
   y="0px"
   viewBox="0 0 477.37836 477.37836"
   xml:space="preserve"
   width="477.37836"
   height="477.37836"><metadata
   id="metadata47"><rdf:RDF><cc:Work
       rdf:about=""><dc:format>image/svg+xml</dc:format><dc:type
         rdf:resource="http://purl.org/dc/dcmitype/StillImage" /><dc:title></dc:title></cc:Work></rdf:RDF></metadata><defs
   id="defs45">
	
	
</defs>

















<rect
   style="fill:#ffffff;stroke:#000000;stroke-width:3.03907;stroke-linecap:round"
   id="rect73"
   width="474.33929"
   height="474.33929"
   x="1.5195349"
   y="1.5195349"
   ry="38.194004" /><g
   id="g84"
   transform="translate(-5.7293348,-2.2055718)"><path
     style="fill:#1a1a1a;stroke-width:0.669742"
     d="M 393.91294,131.00451 H 94.924763 c -12.14483,0 -21.984749,-9.83704 -21.984749,-21.97765 0,-12.140597 9.839919,-21.978311 21.984749,-21.978311 H 393.91294 c 12.14415,0 21.98408,9.837038 21.98408,21.978311 0,12.14129 -9.83993,21.97765 -21.98408,21.97765 z"
     id="path2" /><path
     style="fill:#1a1a1a;stroke-width:0.669742"
     d="M 270.80008,262.8731 H 94.924763 c -12.14483,0 -21.984749,-9.83769 -21.984749,-21.97832 0,-12.14068 9.839919,-21.97839 21.984749,-21.97839 H 270.80008 c 12.14415,0 21.98475,9.83707 21.98475,21.97839 0,12.14127 -9.8406,21.97832 -21.98475,21.97832 z"
     id="path4" /><path
     style="fill:#999999;stroke-width:0.669742"
     d="m 393.91294,262.8731 h -35.1752 c -12.14416,0 -21.98475,-9.83705 -21.98475,-21.97832 0,-12.14132 9.83992,-21.97838 21.98475,-21.97838 h 35.1752 c 12.14415,0 21.98408,9.83706 21.98408,21.97838 0,12.14127 -9.83993,21.97832 -21.98408,21.97832 z"
     id="path8" /><path
     style="fill:#1a1a1a;stroke-width:0.669742"
     d="M 393.91294,394.74096 H 94.924763 c -12.14483,0 -21.984749,-9.83779 -21.984749,-21.97837 0,-12.14052 9.839919,-21.97822 21.984749,-21.97822 H 393.91294 c 12.14415,0 21.98408,9.83702 21.98408,21.97822 0,12.14058 -9.83993,21.97837 -21.98408,21.97837 z"
     id="path10" /></g>
</svg>
